<?xml version="1.0" encoding="utf-8"?>
<!-- Generator: Adobe Illustrator 19.1.0, SVG Export Plug-In . SVG Version: 6.00 Build 0)  -->
<svg version="1.1" id="Layer_1" xmlns:sketch="http://www.bohemiancoding.com/sketch/ns"
	 xmlns="http://www.w3.org/2000/svg" xmlns:xlink="http://www.w3.org/1999/xlink" x="0px" y="0px" viewBox="-252 395 495 211"
	 style="enable-background:new -252 395 495 211;" xml:space="preserve">
<style type="text/css">
	.st0{fill:#434349;stroke:#434349;stroke-width:5;}
	.st1{fill:#434349;}
	.st2{font-family:'ProximaNovaSoft-Semibold';}
	.st3{font-size:86px;}
	.st4{letter-spacing:6;}
</style>
<title>starchup_logo</title>
<desc>Created with Sketch.</desc>
<g id="Registration" sketch:type="MSPage">
	<g id="starchup_logo" transform="translate(52.000000, 47.000000)" sketch:type="MSLayerGroup">
		<path id="Fill-1" sketch:type="MSShapeGroup" class="st0" d="M-55,358.6c7.8,0,13.1,5.3,13.1,13.1c0,9.1-13.1,25.8-13.1,25.8
			s-13.1-16.6-13.1-25.8C-68.1,363.2-62.3,358.6-55,358.6 M-55,354c-9.8,0-17.7,7.9-17.7,17.7c0,2.5,0.7,6.9,7,17.5
			c3.2,5.4,6.4,9.8,6.5,10h4.2h4.2c0.8-1.1,3.1-4.4,6.5-10c6.3-10.5,7-15,7-17.5C-37.3,361.9-45.2,354-55,354"/>
		<path id="Fill-2" sketch:type="MSShapeGroup" class="st0" d="M-58.4,398.8l-71.1,25.4c-4.9,1.9-7.9,7.6-7.2,13.5
			c0.8,6.2,5.2,10.7,10.5,10.7H16.4c5.4,0,9.8-4.5,10.6-10.7c0.7-6-2.3-11.7-7.2-13.5L-51.4,399 M22.5,436.9c-0.6,4.6-2.9,7.1-6.2,7
			h-142.6c-3.6-0.4-5.6-2.3-6.2-7c-0.3-4.6,1.7-7.8,4.9-8.8l72.5-25.8L17.3,428C20.4,428.9,22.9,431.4,22.5,436.9"/>
		<text transform="matrix(1 0 0 1 -304 543.2776)" class="st1 st2 st3 st4">STARCHUP</text>
	</g>
</g>
</svg>
