<?xml version="1.0" encoding="utf-8"?>
<!-- Generator: Adobe Illustrator 19.1.0, SVG Export Plug-In . SVG Version: 6.00 Build 0)  -->
<svg version="1.1" id="Layer_1" xmlns:sketch="http://www.bohemiancoding.com/sketch/ns"
	 xmlns="http://www.w3.org/2000/svg" xmlns:xlink="http://www.w3.org/1999/xlink" x="0px" y="0px" viewBox="-659 391 600 300"
	 style="enable-background:new -659 391 600 300;" xml:space="preserve">
<style type="text/css">
	.st0{fill:#434349;}
	.st1{fill:#FFFFFF;stroke:#FFFFFF;stroke-width:5;}
	.st2{enable-background:new    ;}
	.st3{fill:#FFFFFF;}
</style>
<title>starchup_logo_mint</title>
<desc>Created with Sketch.</desc>
<g id="starchup_logo_mint" sketch:type="MSArtboardGroup">
	<rect id="Rectangle-361" x="-659" y="391" sketch:type="MSShapeGroup" class="st0" width="600" height="300">
	</rect>
	<g id="starchup_logo" transform="translate(52.000000, 47.000000)" sketch:type="MSLayerGroup">
		<path id="Fill-1" sketch:type="MSShapeGroup" class="st1" d="M-407,404.6c7.8,0,13.1,5.3,13.1,13.1c0,9.1-13.1,25.8-13.1,25.8
			s-13.1-16.6-13.1-25.8C-420.1,409.2-414.3,404.6-407,404.6 M-407,400c-9.8,0-17.7,7.9-17.7,17.7c0,2.5,0.7,6.9,7,17.5
			c3.2,5.4,6.4,9.8,6.5,10h4.2h4.2c0.8-1.1,3.1-4.4,6.5-10c6.3-10.5,7-15,7-17.5C-389.3,407.9-397.2,400-407,400"/>
		<path id="Fill-2" sketch:type="MSShapeGroup" class="st1" d="M-410.4,444.8l-71.1,25.4c-4.9,1.9-7.9,7.6-7.2,13.5
			c0.8,6.2,5.2,10.7,10.5,10.7h142.6c5.4,0,9.8-4.5,10.6-10.7c0.7-6-2.3-11.7-7.2-13.5l-71.2-25.2 M-329.5,482.9
			c-0.6,4.6-2.9,7.1-6.2,7h-142.6c-3.6-0.4-5.6-2.3-6.2-7c-0.3-4.6,1.7-7.8,4.9-8.8l72.5-25.8l72.4,25.7
			C-331.6,474.9-329.1,477.4-329.5,482.9"/>
		<g class="st2">
			<path class="st3" d="M-630.2,590.3c-8.4,0-17.4-2.8-21.2-7.3c-0.7-0.9-1-1.8-1-2.8c0-2.7,2.3-4.9,4.9-4.9c0.9,0,2,0.3,2.8,0.9
				c4,3,9,5.2,15,5.2c8.1,0,11.4-4,11.4-7.7c0-11.9-33.4-4.5-33.4-25.6c0-9.5,8.3-16.9,20.9-16.9c6.9,0,15.5,2.1,19.3,6.3
				c0.7,0.8,1,1.8,1,2.8c0,2.7-2.5,4.7-5,4.7c-0.9,0-1.9-0.3-2.8-0.9c-4-2.7-8.8-3.9-13.4-3.9c-5.8,0-9.5,2.8-9.5,7.1
				c0,10.6,33.3,4,33.3,25.4C-608,582.1-614.7,590.3-630.2,590.3z"/>
			<path class="st3" d="M-555.4,540.9h-13.3v43.8c0,2.8-2.3,5.1-5.2,5.1c-2.8,0-5.1-2.3-5.1-5.1v-43.8h-13.3c-2.5,0-4.5-2-4.5-4.6
				c0-2.4,2-4.4,4.5-4.4h37c2.4,0,4.5,2,4.5,4.6C-550.9,539-553,540.9-555.4,540.9z"/>
			<path class="st3" d="M-497.7,589.8c-2.1,0-4.1-1.3-5-3.4l-3-8h-26.1l-3.1,8c-0.8,2.1-2.8,3.4-5,3.4c-3.3,0-5.5-2.7-5.5-5.5
				c0-0.6,0.1-1.3,0.4-1.9l17.9-45.6c1.3-3.3,4.5-5.4,8-5.4c3.7-0.2,7.2,2,8.6,5.4l18,45.6c0.2,0.6,0.3,1.3,0.3,1.9
				C-492.2,587-494.3,589.8-497.7,589.8z M-518.7,542.2l-10.3,27.1h20.4L-518.7,542.2z"/>
			<path class="st3" d="M-446,566.8l9.5,15.5c0.4,0.8,0.7,1.6,0.7,2.5c0,2.4-2.1,5-5.1,5c-1.7,0-3.4-0.9-4.3-2.5l-11.4-19.4h-9.9
				v16.8c0,2.8-2.3,5.1-5.2,5.1c-2.8,0-5-2.3-5-5.1v-46.6c0-3.4,2.8-6.2,6.2-6.2h19.2c11.4,0,18.7,7.4,18.7,18.1
				C-432.6,560.1-439.2,565.7-446,566.8z M-466.5,540.9v18h13.7c5.6,0,9.7-3.5,9.7-8.9c0-5.5-4.1-9-9.7-9L-466.5,540.9L-466.5,540.9
				z"/>
			<path class="st3" d="M-367.8,539.9c0.7,0.9,1.1,2,1.1,3c0,2.7-2.2,4.7-4.9,4.7c-1.3,0-2.7-0.5-3.7-1.6c-3.3-3.7-8-5.9-12.7-5.9
				c-11.3,0-19.6,8.6-19.6,20.6c0,11.9,8.3,20.6,19.6,20.6c4.7,0,9.5-2.1,12.7-5.8c1-1,2.4-1.6,3.8-1.6c2.7,0,4.7,2.1,4.7,4.6
				c0,1-0.3,2.2-1,3c-4.4,5-10.8,8.9-20.2,8.9c-16.9,0-30.1-12-30.1-29.7S-405,531-388,531C-378.7,531-372.2,534.9-367.8,539.9z"/>
			<path class="st3" d="M-305,589.8c-2.8,0-5.1-2.3-5.1-5.1v-20.4h-29.6v20.4c0,2.8-2.3,5.1-5.2,5.1c-2.8,0-5-2.3-5-5.1v-48.3
				c0-2.7,2.2-5,5.2-5c2.8,0,5.1,2.3,5.1,5v18.9h29.6v-18.9c0-2.7,2.2-5,5.2-5c2.8,0,5.1,2.3,5.1,5v48.3
				C-299.7,587.5-302,589.8-305,589.8z"/>
			<path class="st3" d="M-255.8,590.3c-16.7,0-24.9-9.5-24.9-23.6v-30.2c0-2.8,2.2-5.1,5.2-5.1c2.8,0,5.1,2.3,5.1,5.1v29.8
				c0,8.9,5.1,14.9,14.5,14.9c9.5,0,14.5-5.9,14.5-14.9v-29.8c0-2.8,2.3-5.1,5.3-5.1c2.8,0,5.1,2.3,5.1,5.1v30.1
				C-230.8,580.8-239,590.3-255.8,590.3z"/>
			<path class="st3" d="M-186.4,567.9h-15.1v16.8c0,2.8-2.3,5.1-5.2,5.1c-2.8,0-5-2.3-5-5.1v-46.6c0-3.4,2.8-6.2,6.2-6.2h19.2
				c12,0,18.7,8.3,18.7,18.1C-167.6,559.7-174.4,567.9-186.4,567.9z M-187.7,540.9h-13.8v18h13.8c5.6,0,9.6-3.6,9.6-8.9
				C-178.1,544.5-182.1,540.9-187.7,540.9z"/>
		</g>
	</g>
</g>
</svg>
