<?xml version="1.0" encoding="utf-8"?>
<!-- Generator: Adobe Illustrator 19.1.0, SVG Export Plug-In . SVG Version: 6.00 Build 0)  -->
<svg version="1.1" id="Layer_1" xmlns:sketch="http://www.bohemiancoding.com/sketch/ns"
	 xmlns="http://www.w3.org/2000/svg" xmlns:xlink="http://www.w3.org/1999/xlink" x="0px" y="0px" viewBox="-175 395 341 211"
	 style="enable-background:new -175 395 341 211;" xml:space="preserve">
<style type="text/css">
	.st0{fill:#26DEBD;stroke:#26DEBD;stroke-width:5;}
</style>
<title>starchup_logo</title>
<desc>Created with Sketch.</desc>
<g id="Registration" sketch:type="MSPage">
	<g id="starchup_logo" transform="translate(52.000000, 47.000000)" sketch:type="MSLayerGroup">
		<path id="Fill-1" sketch:type="MSShapeGroup" class="st0" d="M-56.8,379.2c14,0,23.5,9.5,23.5,23.5c0,16.3-23.5,46.2-23.5,46.2
			s-23.5-29.7-23.5-46.2C-80.2,387.5-69.8,379.2-56.8,379.2 M-56.8,371c-17.5,0-31.7,14.1-31.7,31.7c0,4.5,1.3,12.4,12.5,31.3
			c5.7,9.7,11.5,17.5,11.6,17.9h7.5h7.5c1.4-2,5.5-7.9,11.6-17.9c11.3-18.8,12.5-26.9,12.5-31.3C-25.1,385.1-39.2,371-56.8,371"/>
		<path id="Fill-2" sketch:type="MSShapeGroup" class="st0" d="M-62.9,451.2l-127.3,45.5c-8.8,3.4-14.1,13.6-12.9,24.2
			c1.4,11.1,9.3,19.2,18.8,19.2H71.1c9.7,0,17.5-8.1,19-19.2c1.3-10.7-4.1-20.9-12.9-24.2l-127.5-45.1 M82,519.4
			c-1.1,8.2-5.2,12.7-11.1,12.5h-255.3c-6.4-0.7-10-4.1-11.1-12.5c-0.5-8.2,3-14,8.8-15.8l129.8-46.2l129.6,46
			C78.2,505.1,82.7,509.6,82,519.4"/>
	</g>
</g>
</svg>
